<?xml version="1.0" encoding="UTF-8"?>
<svg width="164.36mm" height="92.022mm" version="1.1" viewBox="0 0 164.36 92.022" xmlns="http://www.w3.org/2000/svg" xmlns:cc="http://creativecommons.org/ns#" xmlns:dc="http://purl.org/dc/elements/1.1/" xmlns:rdf="http://www.w3.org/1999/02/22-rdf-syntax-ns#">
 <style/>
 <metadata>
  <rdf:RDF>
   <cc:Work rdf:about="">
    <dc:format>image/svg+xml</dc:format>
    <dc:type rdf:resource="http://purl.org/dc/dcmitype/StillImage"/>
    <dc:title/>
   </cc:Work>
  </rdf:RDF>
 </metadata>
 <g transform="translate(-21.502 -121.27)">
  <path transform="scale(.26458)" d="m407.22 458.36c-21.592-0.1894-39.774 5.3024-64.775 11.363-33.335 8.0812-76.772 8.0813-112.13 25.254-35.355 17.173-43.437 49.498-49.498 79.803-6.0609 30.305-20.202 36.365-23.232 66.67-3.0305 30.305 14.142 44.447 21.213 60.609 7.0711 16.162 6.0606 35.355 26.264 51.518 20.203 16.162 51.519 14.141 73.742 18.182 22.223 4.0406 66.669 19.194 105.05 22.225 38.386 3.0305 86.873-5.0516 117.18-3.0312 30.305 2.0203 66.67 16.162 81.822 15.152 15.152-1.0102 19.193-7.0708 36.365-16.162 17.173-9.0914 36.367-10.101 46.469-17.172 10.102-7.0711 17.171-14.144 24.242-26.266 7.071-12.122-2.0199-28.283-1.0098-39.395 1.0102-11.112 9.0922-8.0818 13.133-44.447s-21.214-81.822-38.387-98.994c-17.173-17.173-54.549-44.448-79.803-56.57 0 0-57.579-16.161-91.924-23.232-34.345-7.071-28.284-17.173-61.619-23.234-8.3338-1.5152-15.91-2.2084-23.107-2.2715zm-91.176 61.887c1.9938-0.0406 3.4556 1.3184 4.4297 2.6172 1.2988 1.7317 1.4068 4.3306-0.75781 8.4434-2.1646 4.1128-4.0041 2.3798-7.9004 6.709-3.8963 4.3292-6.4941 11.799-6.4941 11.799s6.6017-0.75804 12.338-0.97461c5.7362-0.21645 14.071 0.64981 17.859 1.5156 3.7881 0.86585 3.4626 1.9466 4.5449 5.9512 1.0823 4.0045-3.5706 8.1178-8.7656 14.828-5.1951 6.7103-12.448 8.6584-19.158 8.875-6.7103 0.21649-11.039-2.3804-14.936-5.8438s-4.2206-8.3338-4.7617-12.014c-0.54115-3.6798-1.6228-9.4174 3.5723-22.297 5.1951-12.879 14.719-17.532 17.857-19.047 0.78467-0.3788 1.5073-0.549 2.1719-0.5625zm-42.793 5.1211c0.9933-0.0307 2.1094 0.0818 3.3594 0.34961 5 1.0714 6.9646 6.7849 7.8574 10.178 0.89285 3.3928 3.3931 20.714 4.1074 26.785 0.71427 6.0714 3.9277 18.037 2.6777 21.43-1.25 3.3929-7.6783 3.5717-10.893 1.6074-3.2143-1.9643-2.8566-10.535-3.0352-15.893-0.17857-5.3571-3.5723-23.395-3.5723-23.395s-2.322 6.6088-3.2148 10.895c-0.89285 4.2857-1.6074 13.928-1.6074 13.928s-0.89202 6.2493-6.4277 6.4277c-5.5357 0.17859-7.3223-3.75-7.3223-3.75l-16.785-27.143s-0.89313 20-0.35742 24.107 2.3212 8.3934 2.1426 11.965c-0.17857 3.5714-4.2857 5.0003-7.5 5.3574-3.2143 0.35713-5.8912-3.2145-6.6055-6.6074-0.7143-3.3928-0.35743-25.893-0.35743-25.893s-0.53655-24.643 0.17774-26.607c0.71428-1.9643 2.6791-3.2151 6.9648-3.5723 4.2857-0.35717 8.2137 4.4651 11.785 8.5723 3.5714 4.1071 14.285 22.5 14.285 22.5s1.4286-10.18 2.5-13.93c1.0714-3.75 4.466-10.535 5.8945-13.57 1.0714-2.2768 2.9459-3.6501 5.9258-3.7422zm85.109 1.0176c3.0995-0.11017 3.7012 1.9318 5.7305 4.1641 2.1646 2.381 17.209 25.65 17.209 25.65-1e-5 0 1.623-0.54033 3.4629-0.10743 1.84 0.43295 2.7065 0.43185 4.8711 4.3281 2.1646 3.8963-2.3809 7.1426-2.3809 7.1426s3.4628 5.9527 4.0039 7.5762c0.54115 1.6235-1.1909 5.3046-4.6543 7.1445-3.4634 1.8399-5.7367-0.8663-7.252-2.8144-1.5152-1.9482-5.1953-10.715-5.1953-10.715l-22.402 1.082s-3.0304 11.473-4.9785 13.312c-1.9482 1.8399-4.0052 0.6492-6.7109-0.75781-2.7058-1.407-4.2217-5.4116-3.5723-7.5762 0.64938-2.1646 1.0836-8.2257 2.707-10.174s1.8396-3.896 2.9219-7.3594 8.226-24.244 9.0918-27.166c0.86586-2.9222 2.8143-3.2467 6.4941-3.6797 0.22999-0.0271 0.44767-0.0438 0.6543-0.0508zm1.0762 18.883-3.8965 11.365 11.582 0.10742zm-40.789 15.539c-1.035 5e-3 -2.233 0.0199-3.5859 0.0469-5.4115 0.10821-9.8476 1.623-9.8476 1.623s2.0563 3.5707 4.9785 5.0859c3.5716 0.6494 5.3024 0.21802 8.2246-1.5137 2.9222-1.7317 4.9785-5.1953 4.9785-5.1953s-1.6432-0.0621-4.748-0.0469zm50.855 36.07c2.375-0.1251 3.625 1.375 6.25 1.5 2.625 0.1251 6.125-0.75001 13.375 3.875s12.625 8.875 14.25 15.5c1.625 6.625 2.375 16.5-1 23.375s-7.375 13.625-13.375 16.75-9.75 4-16.75 2.25c-7-1.75-12.125-5.125-15.5-11.5s-4.875-14.25-3.875-22.25c1-8 4.125-11.625 4.375-14.875 0.24998-3.25-1.375-2.875 1.25-6.375s5.5-5.125 5.5-5.125 3.125-3 5.5-3.125zm218.58 0.83594c2.3294 0.0427 3.3554 1.0547 4.668 3.7891 1.5 3.125-0.12498 4.5-3.375 7.875s-8 5.5-12.5 11.125c-4.5001 5.625-4.375 9.625-4.375 9.625s4-0.1249 7-0.25c3-0.12472 12.875-0.12493 18.5 0.25 5.625 0.375 9.75 0.99999 12.375 2.625s3.125 3.25 1.875 8.625c-1.25 5.375-7 9.75-14.375 15.875-7.375 6.125-12.125 5.5-21 5.5s-11.625-4.375-15.25-8.625c-3.625-4.25-3.5-15.375-2-23.375 1.5-8 5.375-14 9.625-20s14.625-12.75 17.75-13c0.39063-0.0311 0.74927-0.0451 1.082-0.0391zm-321.96 1.7539c2.0742 0.10548 4.5352 0.87896 8.7539 1.1602 5.625 0.375 9.875 1.625 16.625 5.375s11.125 9.5 13.125 16.5c2 7-1.125 12.25-5.125 20s-11.125 12.125-16.25 16.25c-5.125 4.125-6.75 3.125-12.625 2.25s-5.375-3.375-7.125-8.375c-1.75-5-1.125-7.375-1.625-11.75s-2.5-27.875-2.5-27.875-1.25-6.875-0.5-9.125 2.625-3.625 5.25-4.25c0.65625-0.15616 1.3047-0.19536 1.9961-0.16016zm215.78 1.6738c0.88477 0.041 1.9082 0.20508 3.0957 0.48633 4.75 1.125 4.1248 6.5 3.875 10.75-0.25002 4.25 0.5 23 0.5 28s2.25 8 2.875 13.375c0.62502 5.375-3.875 6.875-8.125 6.25-4.25-0.62502-5-4-5.75-8.25-0.75001-4.25-1.75-23.25-1.75-23.25s-0.75001-21.25 0.375-24.25c0.84373-2.2499 2.25-3.2344 4.9043-3.1113zm-71.078 0.0469c0.94116-0.0645 2.0957 0.0644 3.5488 0.43945 3.875 0.99999 5 6.375 5 6.375l2.625 28.25s10.5-27.75 12.125-30.375c1.625-2.625 3.25-3.375 7.125-3.375s4.5 2 7 5.625c2.5 3.625 7.25 29.5 7.25 29.5s0.8749-7 1-11.375c0.12499-4.375-1.3748-16.125-1.125-18.75 0.25002-2.625 3.25-3.8749 6.625-4 3.375-0.12499 5.25 2.625 6.375 4.75 1.1249 2.125 0.375 14.5 0.375 20.125s-0.87499 15-3.375 21.25c-2.5 6.25-4.75 8.4998-10.625 8.75-5.875 0.25002-6.875-3.625-9.25-8-2.375-4.375-6-25.25-6-25.25s-6.875 18.5-10.125 25.75c-3.25 7.25-4 8.625-8.625 10.5-4.625 1.875-5.375-1.75-7.875-4.875-2.5-3.125-3-11.5-3-11.5l-3.25-31.75s-0.375-8.875 0.875-10.375c0.78125-0.93739 1.7576-1.582 3.3262-1.6894zm99.736 0.37109c1.5881-0.0305 3.2188 0.50586 4.3125 2.0684 1.7502 2.5 2 4.625 2 4.625s5 4.375 8.25 7.375c3.25 3 18.25 22.375 18.25 22.375s-0.74998-10.875-1.375-14.5c-0.62498-3.625-2.5-13.125-2.5-16.375 0-3.25 3-4.8748 5.5-5.125 2.5-0.24998 4.5-0.12502 6.375 3.5 1.875 3.625 2.375 11.75 3 17.625 0.62502 5.875 3.375 35.125 2.5 38.75-0.875 3.625-4.75 4.2498-6.25 4.5-1.5 0.24998-3.375-1.625-5.25-3.875-1.8749-2.25-2-4.75-2-4.75l-26.875-32.625s-0.50017 6.125-0.75 8.875c-0.24998 2.75-0.62501 17.5-2 22.25-1.375 4.75-3.625 3.625-7.125 4.25-3.5 0.62498-4.25-3.5-5.125-5.625s0.12499-11.5 1.25-15.5c1.125-4 1.625-24.75 1.625-24.75s-3-4.625-2.25-7.625c0.75001-3 3.625-4 5.75-4.875 0.79688-0.32812 1.7346-0.55004 2.6875-0.56836zm-190.79 0.87891c1.3308-0.0139 3.0059 0.0801 5.3496 0.31445 6.25 0.62502 10.125 0.25001 16.125 2.5s7.625 6.5 8.25 12.5-3.5 10.25-7.375 14.5-14 8.125-14 8.125 0.375-1e-5 3.25 0.75c2.875 0.74997 18.25 5.625 21.875 7s4.875 3.75 5.625 6.625c0.75 2.875-1.125 5.625-3.5 6.75-2.375 1.125-4.875-0.74997-7.75-2.125-2.875-1.375-26.125-8.625-26.125-8.625s0 14.25-0.875 17.125-3.75 4.3748-6.875 4.125c-3.125-0.25002-3.875-3-5.125-5.5-1.25-2.5 0.12501-11.75 0.25-16 0.125-4.25-1-5.75-1.125-8.25-0.125-2.5 1.125-4.75 1.125-4.75s-0.25001-6.375-0.375-11.25c-0.125-4.875-1.375-18-1.375-18s-0.11448-1.3524 1-2.375 3.5-1.875 6.375-2.625c1.7969-0.46864 3.0574-0.79125 5.2754-0.81445zm54.992 8.0723c-0.6898-5e-3 -1.3823 0.0366-2.0781 0.13086-0.32294 0.0427-0.63685 4e-3 -1.084 0.27735-1.2697 0.87434-6.3555 7.584-6.7305 14.584-0.375 7-0.5 14.875 2.875 17.875s4 6.375 9.375 4.875c5.375-1.5 11-5.125 12.875-10.625 1.875-5.5 3.875-12 2.125-15.75s-7.375-9.375-11.125-10.375c-2.1094-0.56253-4.163-0.9786-6.2324-0.99219zm-101.7 2.2285c-0.51758-2e-3 -0.82227 0.0137-0.82227 0.0137s0.75 25.75 1.875 27.375c1.125 1.625 2.5 2.5 2.875 4.125s1.375 2.25 1.375 2.25 5.875-3 8.875-7.5c3-4.5 6.25-9.25 4.25-14.375s-6.625-8.875-10.5-10.5c-2.9062-1.2188-6.375-1.3827-7.9277-1.3887zm51.91 2.0859c-2.5137-0.01762-4.4824 0.05271-4.4824 0.05271l0.625 15.125s11.25-6.25 13.625-8.75c2.375-2.5 3.875-2.625 1.625-4s-5.125-2.25-8.75-2.375c-0.90625-0.0313-1.8047-0.0467-2.6426-0.0527zm264.27 26.842c-1.3594-1e-4 -2.875 0.0234-4.5 0.0859-6.5 0.25002-13.5 0.875-13.5 0.875s0.62501 3.875 2.875 6.25c2.25 2.3749 6.625 1.875 11.375 0.75 5.0107-1.1867 10.5-7.75 10.5-7.75s-2.6719-0.21088-6.75-0.21094zm-119.88 34.773c1.4688 0.0312 3.25 0.375 5.875 0.4375 5.25 0.12499 12.625 0.87498 18.25 4.125 5.625 3.25 9.5 7.625 10.125 13 0.62498 5.375-0.87501 8.375-4.375 13-3.5 4.625-11.125 7.25-11.125 7.25s1.125 0.375 3.25 1.625 12.875 9.125 15.625 10.75c2.75 1.625 5.375 0.62502 7.625 3.375 2.25 2.75 1.25 6.5-1 9.25-2.25 2.75-4.375 2.75-9.25 1.25-4.875-1.5-10.75-8.875-17.25-13-6.5-4.125-14.5-6.375-14.5-6.375s0.1251 1.5 0 5.125c-0.12503 3.625 2.875 7.625 2 11s-1.75 4.2499-6.25 4.375c-4.5 0.12503-6.375-4-7.25-6.75-0.875-2.75-1.1252-30.875-1.375-35.25-0.25002-4.375-1.4998-12.375-1.25-14.125 0.24998-1.75 3.625-3.25 3.625-3.25s0.49998-2 3.25-4.375c1.375-1.1875 2.5312-1.4687 4-1.4375zm-53.328 2.7344c1.3281-0.0781 2.7031 0.26555 3.9531 0.57812 2.5 0.62498 3.75 2 3.75 2s8.5-0.8751 12.75-0.75c4.25 0.12499 7.875 2.625 11.625 5.75s7.875 8.125 9 12.5c1.125 4.375 1.125 8.75-0.625 13.125s-6.375 6.75-15 11.125-15.375 4.375-15.375 4.375 0.12517 7.875 0.375 12c0.2502 4.125 1 7.25 0.125 9.5-0.875 2.25-2.75 3.8748-7.5 3.625-4.75-0.25002-5.6251-6.1251-5.5-11.25 0.12506-5.125 0.5-16.125 0.5-16.125s-1.7499-1.5-1.875-3.75c-0.12499-2.25 1.75-3.875 1.75-3.875s-0.3751-1.5-0.25-6.75c0.12499-5.25-1.875-20-2.625-24-0.75001-4-0.875-3.375 1.25-6.125 1.0625-1.375 2.3438-1.8749 3.6719-1.9531zm-55.104 0.45117c0.38037-0.0288 0.77539-0.0293 1.1816 2e-3 3.25 0.24998 4.25 2 5 4.875 0.74999 2.875 0.75 23.625 1.125 26.75 0.375 3.125 2.125 5.25 2.125 8.375s-2.375 4.375-5.5 5.5c-3.125 1.125-4.5-1.5-8-3.125-3.5-1.625-19-19.25-19-19.25s-0.25 1.75-0.25 5.375c0 3.625 1.125 11.75 0.375 15.75-0.75 4-2.75 4.3751-6.25 4.75-3.5 0.375-5.25-2.375-6.375-4.375-1.125-2-0.12502-7.5 0.125-12.625 0.24999-5.125-0.375-24.75 0.5-28 0.875-3.2499 4.625-3.5 7.5-2.875 2.875 0.62502 4 2.875 5.625 5.5s16.875 16.875 16.875 16.875-0.625-17-0.125-19.5c0.4375-2.1875 2.4058-3.8004 5.0684-4.002zm18.391 1.623c0.2461-0.0119 0.50977-0.0117 0.79102 4e-3 2.25 0.12503 3.125 1.5 5 4.125 1.875 2.625 2.125 9.875 2.75 15.625 0.62498 5.75 1.75 17.125 2.5 20.375 0.74997 3.25-0.87498 5.375-3.625 7.875-2.75 2.5-4.875 0.62499-7.625-1.625-2.75-2.25-2.375-6.625-2.375-11.125 0-4.5-1.625-15.125-2-18.875-0.375-3.75-2.375-8.75-2-11.875s4-3.75 4-3.75 0.86132-0.67021 2.584-0.75391zm164.2 1.1758c4.125-0.0156 8.5938 0.0781 11.219 0.0781 5.25 0 24.75 0.24999 27 1 2.25 0.74997 3.8748 3.125 3.625 5.5-0.25002 2.375-0.25002 3.75-3 5.75-2.75 2-5.875 0.75-5.875 0.75l-18.125-0.875s2.125 28.875 2.125 32.25 2.7501 6.625 2.625 11.625c-0.12503 5-2.125 7.625-4.625 8.375-2.5 0.75001-3.5 0.12502-6.75-2.25-3.25-2.375-2.4999-7.75-2.625-12.5-0.12499-4.75-4-37.125-4-37.125s-10.125 0.125-12.5-1.125c-2.3752-1.25-2.7501-3.75-2.625-5.625 0.12503-1.875 1.875-4.375 4.375-5.25 1.25-0.43746 5.0312-0.56249 9.1562-0.57812zm-21.275 1.4121c1.4209-0.0622 2.9629 0.6504 4.9941 2.291 3.25 2.625 3 10.25 3.75 16.375 0.75001 6.125-0.5 21.625-0.5 26.25s1.125 10.875 0.375 14.625c-0.75001 3.75-2.25 5.1251-6.625 5-4.375-0.12499-5.6251-4.375-6-7.625-0.375-3.25 0.625-13.875 0.625-20.25s-1.875-27.25-1.875-27.25 0.50001-7 2.75-8.5c0.84375-0.56251 1.6533-0.87866 2.5059-0.91602zm78.244 1.4941c2.6875-0.0469 5.3125 0.35937 7.5 0.92188 4.375 1.125 4.7501 2.25 5.125 5.75 0.375 3.5-1.875 5.375-5.625 6.25-3.75 0.875-4.625-1.375-8.5-0.625-3.875 0.74997-5 1.625-6 4.625-0.99999 3-1 4.875 1.75 7.5 2.75 2.625 18.375 10.5 23.125 14.625 4.75 4.125 4.375 7.875 3.875 12.625-0.50003 4.75-2.75 6.125-10.375 8.25-7.625 2.125-13.25-0.125-19.125-1.875-5.875-1.75-10.25-6.625-11.875-8.625-1.6248-2-0.50001-4.125 0.25-6.25 0.74997-2.1251 4.625-3 8.25-2 3.625 0.99999 6 4.875 10.375 6.75 2.1791 0.86767 10.584 0.99975 8.5957-1.2305-2.2227-2.6192-13.721-8.1445-17.596-10.395-3.875-2.25-7-6-9.5-10.875-2.5001-4.875-1.625-7.375 0.375-12.25 2-4.875 6.625-8.875 11.5-11.375 2.4375-1.25 5.1875-1.75 7.875-1.7969zm-122.84 4.1387c-3.4119-0.0366-6.5371 0.1582-6.5371 0.1582l0.75 18s8.625-1.375 13.125-4.875c4.5-3.5 7.125-4.125 6.25-7s-3.375-5.125-7.75-5.875c-1.6406-0.28124-3.7908-0.3863-5.8379-0.4082zm-44.541 3.1465c-0.46873-0.0227-0.96484-0.0185-1.4961 0.0117-4.25 0.24968-7.25 0.625-7.25 0.625s1.8749 9.3749 1.5 13.375c-0.37493 4-0.125 8.875-0.125 8.875s5.125 0.12511 10.125-2.5c5-2.625 9.125-4.125 9.75-7 0.62502-2.875-0.24984-5.875-4-9-3.2812-2.7344-5.2227-4.2246-8.5039-4.3867zm-300.61 6.4199c-2.77-0.0237-5.612 0.24434-8.2637 1.002-10.607 3.0305-11.869 16.669-12.121 24.75-0.25254 8.0812 8.3338 16.92 12.627 19.445 4.2932 2.5254 23.233 7.3238 27.021 8.334 3.7881 1.0102 9.3446 4.0396 17.426-3.7891 8.0812-7.8287 4.7974-18.434-0.50586-29.041-5.3033-10.607-20.203-17.932-20.203-17.932s-7.6704-2.6985-15.98-2.7695zm-35.537 45.701c-3.7881 0-12.879 2.0203-14.395 7.5762-1.5152 5.5558-3.0308 13.89 3.5352 18.184 6.566 4.2931 12.123 3.7871 12.123 3.7871s10.605 0.50502 12.625-7.5762c2.0203-8.0812 1.7693-10.606-1.5137-14.646-3.283-4.0406-8.5869-7.3242-12.375-7.3242z"/>
 </g>
</svg>
