<?xml version="1.0" encoding="UTF-8"?>
<svg width="140.01mm" height="18.471mm" version="1.1" viewBox="0 0 140.01 18.471" xmlns="http://www.w3.org/2000/svg" xmlns:cc="http://creativecommons.org/ns#" xmlns:dc="http://purl.org/dc/elements/1.1/" xmlns:rdf="http://www.w3.org/1999/02/22-rdf-syntax-ns#">
 <style/>
 <metadata>
  <rdf:RDF>
   <cc:Work rdf:about="">
    <dc:format>image/svg+xml</dc:format>
    <dc:type rdf:resource="http://purl.org/dc/dcmitype/StillImage"/>
    <dc:title/>
   </cc:Work>
  </rdf:RDF>
 </metadata>
 <g transform="translate(-39.711 -104)">
  <g stroke-width=".26458">
   <g aria-label="MGA">
    <path d="m44.706 114.98 1.5381-2.1308v5.08h2.2154v-9.5955h-1.4111l-2.794 4.0358-3.0762-4.0358h-1.4676v9.5955h2.2013v-5.2352l1.9191 2.413z"/>
    <path d="m55.665 114.19v1.9897q-0.64911 0.11289-1.143 0.11289-0.73378 0-1.3406-0.35278-0.60678-0.36689-0.97367-1.0724-0.36689-0.70555-0.36689-1.7074 0-1.016 0.39511-1.7357 0.40922-0.73378 1.0583-1.0866 0.66322-0.36689 1.397-0.36689 0.53622 0 0.98778 0.0988 0.45156 0.0847 1.1853 0.31045l0.66322-1.524q-0.55033-0.33867-1.3829-0.52211-0.83256-0.18345-1.4817-0.18345-1.4252 0-2.5964 0.635-1.1712 0.62089-1.8486 1.7639-0.66322 1.143-0.66322 2.6247 0 1.4676 0.60678 2.5823 0.60678 1.1148 1.7216 1.7357 1.1289 0.62089 2.6247 0.62089 0.83256 0 1.7074-0.18345 0.889-0.19755 1.4393-0.52211v-4.8683h-3.6266l-0.18344 1.651z"/>
    <path d="m62.035 108.33-3.6689 9.5955h2.2013l0.74789-2.0743h3.4854l0.77611 2.2154 2.1731-0.254-3.6407-9.4826zm2.1167 5.7714h-2.2154l1.0866-2.9774z" stroke-width=".26458"/>
   </g>
   <g aria-label="drwing">
    <path d="m76.741 104v13.928h-1.2051l-0.47414-0.79022q-0.61242 0.49389-1.3236 0.77047-0.69145 0.27658-1.3434 0.27658-1.4619 0-2.5485-0.63218-1.0668-0.63218-1.6595-1.778-0.57291-1.1458-0.57291-2.667 0-1.5014 0.57291-2.6275 0.59267-1.1458 1.6792-1.7582 1.1063-0.63218 2.5682-0.63218 0.45438 0 1.0075 0.1778 0.55316 0.15805 1.0668 0.47414v-4.5438zm-6.8552 9.0876q0 1.4422 0.67169 2.3114 0.69145 0.86924 1.8768 0.86924 0.59267 0 1.0866-0.1778 0.49389-0.19755 0.98778-0.61242v-4.7018q-0.47414-0.41487-0.96802-0.59267-0.49389-0.19756-1.1063-0.19756-1.1853 0-1.8768 0.86925-0.67169 0.86924-0.67169 2.2324z"/>
    <path d="m80.493 111.83q0.79022-0.7112 1.7385-1.2051 0.94827-0.49389 1.6595-0.49389l-0.45438-1.778q-0.69145 0-1.62 0.49389-0.90876 0.49389-1.62 1.0866l-0.73096-1.5804h-1.1853v9.5815h2.2126z"/>
    <path d="m104.71 117.93 3.0226-9.5815h-2.3114l-1.6397 6.1835-1.7187-6.1835h-2.4102l-1.6397 6.1835-1.7385-6.5194-2.1534 0.69145 2.8843 9.2259h1.9558l1.857-6.3613 1.9558 6.3613z"/>
    <path d="m109.8 106.81q0.55315 0 0.92851-0.37536 0.39511-0.39511 0.39511-0.94826 0-0.53341-0.39511-0.90876-0.37536-0.39511-0.92851-0.39511-0.5334 0-0.90876 0.39511-0.37536 0.37535-0.37536 0.90876 0 0.55315 0.3556 0.94826 0.37536 0.37536 0.92852 0.37536zm1.1458 11.122v-9.5815h-2.2324v9.5815z"/>
    <path d="m114.78 111.23q1.6002-1.3236 2.8053-1.3236 1.4817 0 1.4817 1.9953v6.0254h2.2324v-6.1637q0-1.7385-0.75071-2.7263-0.75072-1.0075-2.4299-1.0075-0.86925 0-1.857 0.39511t-1.8175 1.0668l-0.39512-1.1458h-1.4817v9.5815h2.2126z"/>
    <path d="m131.35 108.35v10.233q0 1.7978-1.3039 2.8448-1.2841 1.047-3.5362 1.047-0.71121 0-1.857-0.27658-1.1261-0.27658-1.778-0.73095l0.6717-1.6002q0.889 0.41487 1.5212 0.61243 0.65193 0.19755 1.3829 0.19755 1.1853 0 1.9163-0.57291 0.75071-0.55316 0.75071-1.5409v-1.0273q-0.51364 0.31609-1.0668 0.47414-0.55315 0.1778-1.047 0.1778-1.4619 0-2.5485-0.63218-1.0668-0.63218-1.6595-1.778-0.57291-1.1458-0.57291-2.667 0-1.5014 0.57291-2.6275 0.59267-1.1458 1.6792-1.7582 1.1063-0.63218 2.5682-0.63218 0.59266 0 1.3236 0.27658t1.3039 0.75072l0.47414-0.77047zm-4.3067 7.922q0.59266 0 1.0866-0.1778 0.49389-0.19755 0.98778-0.61242v-4.7018q-0.47413-0.41487-0.96802-0.59267-0.49389-0.19756-1.1063-0.19756-1.1853 0-1.8768 0.86925-0.67169 0.86924-0.67169 2.2324 0 1.4422 0.67169 2.3114 0.69145 0.86924 1.8768 0.86924z"/>
   </g>
   <g aria-label="NI">
    <path d="m135 117.93v-5.7291l4.064 5.7291h2.1167v-9.5955h-2.2013v5.7997l-4.064-5.7997h-2.1167v9.5955z"/>
    <path d="m145.19 117.93v-9.5955h-2.2013v9.5955z"/>
   </g>
   <g aria-label="prits">
    <path d="m150.69 108.09q1.4619 0 2.5485 0.63218 1.0866 0.61242 1.6595 1.7582 0.59267 1.1458 0.59267 2.6868 0 1.4817-0.59267 2.6275-0.59267 1.1261-1.699 1.7582-1.0866 0.63218-2.5485 0.63218-0.86924 0-1.8373-0.51365v4.366l-2.2126 0.21731v-13.908h1.1656l0.47413 0.63218q0.57291-0.43462 1.2248-0.65193 0.65193-0.23707 1.2248-0.23707zm-0.0395 8.1788q1.1853 0 1.857-0.86925 0.69145-0.86925 0.69145-2.2324 0-1.4224-0.67169-2.2916-0.67169-0.889-1.8768-0.889-0.51364 0-0.96802 0.15804-0.43462 0.15805-0.86925 0.47413v5.0574q0.80998 0.59267 1.8373 0.59267z"/>
    <path d="m158.72 111.83q0.79022-0.71121 1.7385-1.2051t1.6595-0.49389l-0.45438-1.778q-0.69144 0-1.62 0.49389-0.90876 0.49389-1.62 1.0866l-0.73096-1.5804h-1.1853v9.5815h2.2126z"/>
    <path d="m163.88 106.81q0.55316 0 0.92851-0.37535 0.39512-0.39511 0.39512-0.94827 0-0.5334-0.39512-0.90876-0.37535-0.39511-0.92851-0.39511-0.5334 0-0.90876 0.39511-0.37535 0.37536-0.37535 0.90876 0 0.55316 0.3556 0.94827 0.37535 0.37535 0.92851 0.37535zm1.1458 11.122v-9.5815h-2.2324v9.5815z"/>
    <path d="m169.29 108.43v-2.7855l-2.2126 0.43463v2.3509h-1.3236v1.699h1.3236v4.9389q0 1.5607 0.90876 2.3904 0.90876 0.82974 2.509 0.82974 0.43462 0 0.94827-0.15805 0.5334-0.13829 0.82973-0.33584l-0.61242-1.6397q-0.5334 0.23707-0.98778 0.23707-0.69145 0-1.047-0.45438-0.33584-0.47413-0.33584-1.2446v-4.5636h2.4102l-0.67169-1.699z"/>
    <path d="m172.55 117.26q0.59267 0.43462 1.5409 0.67169 0.96803 0.25682 1.6792 0.25682 1.9163 0 2.9238-0.77047 1.0273-0.77047 1.0273-2.1731 0-1.9953-3.2597-3.1609-0.80998-0.27658-1.2644-0.55316t-0.47414-0.61242q0-0.43462 0.41487-0.73096 0.41487-0.29633 1.0273-0.29633 0.67169 0 1.2446 0.1778 0.59266 0.15804 1.2841 0.47413l0.69145-1.5014q-0.63218-0.43463-1.5804-0.69145-0.92852-0.25682-1.6002-0.25682-1.699 0-2.6868 0.77047-0.98778 0.75071-0.98778 2.0743 0 1.8965 3.1609 2.9238 1.8965 0.61243 1.8965 1.4817 0 0.47414-0.53341 0.75072-0.5334 0.27657-1.2841 0.27657-1.1853 0-2.5485-0.65193z"/>
   </g>
  </g>
  <circle cx="88.981" cy="113.12" r="5" stroke-opacity="0"/>
 </g>
</svg>
